<svg width="210" height="210" viewBox="0 0 210 210" fill="none" xmlns="http://www.w3.org/2000/svg">
<path d="M0 0H50.6897V7.24138H0V0ZM57.931 0H65.1724V7.24138H57.931V0ZM72.4138 0H79.6552V7.24138H72.4138V0ZM86.8966 0H94.1379V7.24138H86.8966V0ZM144.828 0H152.069V7.24138H144.828V0ZM159.31 0H210V7.24138H159.31V0ZM0 7.24138H7.24138V14.4828H0V7.24138ZM43.4483 7.24138H50.6897V14.4828H43.4483V7.24138ZM65.1724 7.24138H94.1379V14.4828H65.1724V7.24138ZM115.862 7.24138H123.103V14.4828H115.862V7.24138ZM137.586 7.24138H152.069V14.4828H137.586V7.24138ZM159.31 7.24138H166.552V14.4828H159.31V7.24138ZM202.759 7.24138H210V14.4828H202.759V7.24138ZM0 14.4828H7.24138V21.7241H0V14.4828ZM14.4828 14.4828H36.2069V21.7241H14.4828V14.4828ZM43.4483 14.4828H50.6897V21.7241H43.4483V14.4828ZM65.1724 14.4828H72.4138V21.7241H65.1724V14.4828ZM79.6552 14.4828H101.379V21.7241H79.6552V14.4828ZM108.621 14.4828H137.586V21.7241H108.621V14.4828ZM144.828 14.4828H152.069V21.7241H144.828V14.4828ZM159.31 14.4828H166.552V21.7241H159.31V14.4828ZM173.793 14.4828H195.517V21.7241H173.793V14.4828ZM202.759 14.4828H210V21.7241H202.759V14.4828ZM0 21.7241H7.24138V28.9655H0V21.7241ZM14.4828 21.7241H36.2069V28.9655H14.4828V21.7241ZM43.4483 21.7241H50.6897V28.9655H43.4483V21.7241ZM57.931 21.7241H65.1724V28.9655H57.931V21.7241ZM79.6552 21.7241H86.8966V28.9655H79.6552V21.7241ZM101.379 21.7241H144.828V28.9655H101.379V21.7241ZM159.31 21.7241H166.552V28.9655H159.31V21.7241ZM173.793 21.7241H195.517V28.9655H173.793V21.7241ZM202.759 21.7241H210V28.9655H202.759V21.7241ZM0 28.9655H7.24138V36.2069H0V28.9655ZM14.4828 28.9655H36.2069V36.2069H14.4828V28.9655ZM43.4483 28.9655H50.6897V36.2069H43.4483V28.9655ZM57.931 28.9655H65.1724V36.2069H57.931V28.9655ZM72.4138 28.9655H79.6552V36.2069H72.4138V28.9655ZM94.1379 28.9655H108.621V36.2069H94.1379V28.9655ZM115.862 28.9655H123.103V36.2069H115.862V28.9655ZM137.586 28.9655H144.828V36.2069H137.586V28.9655ZM159.31 28.9655H166.552V36.2069H159.31V28.9655ZM173.793 28.9655H195.517V36.2069H173.793V28.9655ZM202.759 28.9655H210V36.2069H202.759V28.9655ZM0 36.2069H7.24138V43.4483H0V36.2069ZM43.4483 36.2069H50.6897V43.4483H43.4483V36.2069ZM57.931 36.2069H65.1724V43.4483H57.931V36.2069ZM72.4138 36.2069H115.862V43.4483H72.4138V36.2069ZM123.103 36.2069H152.069V43.4483H123.103V36.2069ZM159.31 36.2069H166.552V43.4483H159.31V36.2069ZM202.759 36.2069H210V43.4483H202.759V36.2069ZM0 43.4483H50.6897V50.6897H0V43.4483ZM57.931 43.4483H65.1724V50.6897H57.931V43.4483ZM72.4138 43.4483H79.6552V50.6897H72.4138V43.4483ZM86.8966 43.4483H94.1379V50.6897H86.8966V43.4483ZM101.379 43.4483H108.621V50.6897H101.379V43.4483ZM115.862 43.4483H123.103V50.6897H115.862V43.4483ZM130.345 43.4483H137.586V50.6897H130.345V43.4483ZM144.828 43.4483H152.069V50.6897H144.828V43.4483ZM159.31 43.4483H210V50.6897H159.31V43.4483ZM57.931 50.6897H65.1724V57.931H57.931V50.6897ZM72.4138 50.6897H79.6552V57.931H72.4138V50.6897ZM86.8966 50.6897H94.1379V57.931H86.8966V50.6897ZM101.379 50.6897H108.621V57.931H101.379V50.6897ZM123.103 50.6897H137.586V57.931H123.103V50.6897ZM144.828 50.6897H152.069V57.931H144.828V50.6897ZM0 57.931H7.24138V65.1724H0V57.931ZM28.9655 57.931H36.2069V65.1724H28.9655V57.931ZM43.4483 57.931H72.4138V65.1724H43.4483V57.931ZM94.1379 57.931H115.862V65.1724H94.1379V57.931ZM137.586 57.931H144.828V65.1724H137.586V57.931ZM152.069 57.931H188.276V65.1724H152.069V57.931ZM202.759 57.931H210V65.1724H202.759V57.931ZM0 65.1724H7.24138V72.4138H0V65.1724ZM14.4828 65.1724H21.7241V72.4138H14.4828V65.1724ZM36.2069 65.1724H43.4483V72.4138H36.2069V65.1724ZM50.6897 65.1724H65.1724V72.4138H50.6897V65.1724ZM79.6552 65.1724H86.8966V72.4138H79.6552V65.1724ZM123.103 65.1724H144.828V72.4138H123.103V65.1724ZM159.31 65.1724H188.276V72.4138H159.31V65.1724ZM195.517 65.1724H210V72.4138H195.517V65.1724ZM0 72.4138H7.24138V79.6552H0V72.4138ZM21.7241 72.4138H50.6897V79.6552H21.7241V72.4138ZM65.1724 72.4138H72.4138V79.6552H65.1724V72.4138ZM86.8966 72.4138H115.862V79.6552H86.8966V72.4138ZM123.103 72.4138H137.586V79.6552H123.103V72.4138ZM159.31 72.4138H166.552V79.6552H159.31V72.4138ZM188.276 72.4138H195.517V79.6552H188.276V72.4138ZM202.759 72.4138H210V79.6552H202.759V72.4138ZM28.9655 79.6552H43.4483V86.8966H28.9655V79.6552ZM57.931 79.6552H79.6552V86.8966H57.931V79.6552ZM86.8966 79.6552H101.379V86.8966H86.8966V79.6552ZM108.621 79.6552H130.345V86.8966H108.621V79.6552ZM137.586 79.6552H159.31V86.8966H137.586V79.6552ZM181.034 79.6552H188.276V86.8966H181.034V79.6552ZM202.759 79.6552H210V86.8966H202.759V79.6552ZM0 86.8966H28.9655V94.1379H0V86.8966ZM43.4483 86.8966H57.931V94.1379H43.4483V86.8966ZM79.6552 86.8966H86.8966V94.1379H79.6552V86.8966ZM94.1379 86.8966H101.379V94.1379H94.1379V86.8966ZM123.103 86.8966H130.345V94.1379H123.103V86.8966ZM137.586 86.8966H159.31V94.1379H137.586V86.8966ZM188.276 86.8966H195.517V94.1379H188.276V86.8966ZM0 94.1379H21.7241V101.379H0V94.1379ZM36.2069 94.1379H43.4483V101.379H36.2069V94.1379ZM94.1379 94.1379H137.586V101.379H94.1379V94.1379ZM159.31 94.1379H210V101.379H159.31V94.1379ZM7.24138 101.379H14.4828V108.621H7.24138V101.379ZM21.7241 101.379H65.1724V108.621H21.7241V101.379ZM108.621 101.379H137.586V108.621H108.621V101.379ZM152.069 101.379H159.31V108.621H152.069V101.379ZM173.793 101.379H181.034V108.621H173.793V101.379ZM195.517 101.379H210V108.621H195.517V101.379ZM0 108.621H7.24138V115.862H0V108.621ZM21.7241 108.621H36.2069V115.862H21.7241V108.621ZM50.6897 108.621H57.931V115.862H50.6897V108.621ZM65.1724 108.621H72.4138V115.862H65.1724V108.621ZM79.6552 108.621H86.8966V115.862H79.6552V108.621ZM101.379 108.621H108.621V115.862H101.379V108.621ZM123.103 108.621H137.586V115.862H123.103V108.621ZM144.828 108.621H152.069V115.862H144.828V108.621ZM159.31 108.621H166.552V115.862H159.31V108.621ZM202.759 108.621H210V115.862H202.759V108.621ZM7.24138 115.862H28.9655V123.103H7.24138V115.862ZM43.4483 115.862H57.931V123.103H43.4483V115.862ZM65.1724 115.862H79.6552V123.103H65.1724V115.862ZM86.8966 115.862H115.862V123.103H86.8966V115.862ZM123.103 115.862H130.345V123.103H123.103V115.862ZM137.586 115.862H144.828V123.103H137.586V115.862ZM173.793 115.862H181.034V123.103H173.793V115.862ZM0 123.103H14.4828V130.345H0V123.103ZM21.7241 123.103H36.2069V130.345H21.7241V123.103ZM50.6897 123.103H57.931V130.345H50.6897V123.103ZM65.1724 123.103H72.4138V130.345H65.1724V123.103ZM115.862 123.103H123.103V130.345H115.862V123.103ZM137.586 123.103H144.828V130.345H137.586V123.103ZM152.069 123.103H195.517V130.345H152.069V123.103ZM21.7241 130.345H36.2069V137.586H21.7241V130.345ZM43.4483 130.345H50.6897V137.586H43.4483V130.345ZM57.931 130.345H65.1724V137.586H57.931V130.345ZM72.4138 130.345H79.6552V137.586H72.4138V130.345ZM94.1379 130.345H123.103V137.586H94.1379V130.345ZM130.345 130.345H137.586V137.586H130.345V130.345ZM152.069 130.345H166.552V137.586H152.069V130.345ZM181.034 130.345H188.276V137.586H181.034V130.345ZM202.759 130.345H210V137.586H202.759V130.345ZM14.4828 137.586H28.9655V144.828H14.4828V137.586ZM36.2069 137.586H43.4483V144.828H36.2069V137.586ZM50.6897 137.586H57.931V144.828H50.6897V137.586ZM94.1379 137.586H101.379V144.828H94.1379V137.586ZM123.103 137.586H130.345V144.828H123.103V137.586ZM152.069 137.586H159.31V144.828H152.069V137.586ZM166.552 137.586H173.793V144.828H166.552V137.586ZM181.034 137.586H188.276V144.828H181.034V137.586ZM202.759 137.586H210V144.828H202.759V137.586ZM0 144.828H14.4828V152.069H0V144.828ZM21.7241 144.828H28.9655V152.069H21.7241V144.828ZM36.2069 144.828H50.6897V152.069H36.2069V144.828ZM57.931 144.828H65.1724V152.069H57.931V144.828ZM72.4138 144.828H86.8966V152.069H72.4138V144.828ZM94.1379 144.828H101.379V152.069H94.1379V144.828ZM123.103 144.828H188.276V152.069H123.103V144.828ZM57.931 152.069H72.4138V159.31H57.931V152.069ZM79.6552 152.069H86.8966V159.31H79.6552V152.069ZM94.1379 152.069H123.103V159.31H94.1379V152.069ZM144.828 152.069H152.069V159.31H144.828V152.069ZM173.793 152.069H181.034V159.31H173.793V152.069ZM188.276 152.069H210V159.31H188.276V152.069ZM0 159.31H50.6897V166.552H0V159.31ZM57.931 159.31H72.4138V166.552H57.931V159.31ZM79.6552 159.31H86.8966V166.552H79.6552V159.31ZM108.621 159.31H123.103V166.552H108.621V159.31ZM130.345 159.31H137.586V166.552H130.345V159.31ZM144.828 159.31H152.069V166.552H144.828V159.31ZM159.31 159.31H166.552V166.552H159.31V159.31ZM173.793 159.31H188.276V166.552H173.793V159.31ZM195.517 159.31H210V166.552H195.517V159.31ZM0 166.552H7.24138V173.793H0V166.552ZM43.4483 166.552H50.6897V173.793H43.4483V166.552ZM65.1724 166.552H94.1379V173.793H65.1724V166.552ZM101.379 166.552H108.621V173.793H101.379V166.552ZM123.103 166.552H152.069V173.793H123.103V166.552ZM173.793 166.552H188.276V173.793H173.793V166.552ZM195.517 166.552H202.759V173.793H195.517V166.552ZM0 173.793H7.24138V181.034H0V173.793ZM14.4828 173.793H36.2069V181.034H14.4828V173.793ZM43.4483 173.793H50.6897V181.034H43.4483V173.793ZM57.931 173.793H72.4138V181.034H57.931V173.793ZM79.6552 173.793H108.621V181.034H79.6552V173.793ZM115.862 173.793H123.103V181.034H115.862V173.793ZM137.586 173.793H181.034V181.034H137.586V173.793ZM188.276 173.793H195.517V181.034H188.276V173.793ZM0 181.034H7.24138V188.276H0V181.034ZM14.4828 181.034H36.2069V188.276H14.4828V181.034ZM43.4483 181.034H50.6897V188.276H43.4483V181.034ZM72.4138 181.034H79.6552V188.276H72.4138V181.034ZM86.8966 181.034H94.1379V188.276H86.8966V181.034ZM108.621 181.034H123.103V188.276H108.621V181.034ZM130.345 181.034H137.586V188.276H130.345V181.034ZM144.828 181.034H159.31V188.276H144.828V181.034ZM166.552 181.034H195.517V188.276H166.552V181.034ZM202.759 181.034H210V188.276H202.759V181.034ZM0 188.276H7.24138V195.517H0V188.276ZM14.4828 188.276H36.2069V195.517H14.4828V188.276ZM43.4483 188.276H50.6897V195.517H43.4483V188.276ZM65.1724 188.276H86.8966V195.517H65.1724V188.276ZM94.1379 188.276H101.379V195.517H94.1379V188.276ZM108.621 188.276H115.862V195.517H108.621V188.276ZM123.103 188.276H166.552V195.517H123.103V188.276ZM195.517 188.276H210V195.517H195.517V188.276ZM0 195.517H7.24138V202.759H0V195.517ZM43.4483 195.517H50.6897V202.759H43.4483V195.517ZM94.1379 195.517H130.345V202.759H94.1379V195.517ZM159.31 195.517H166.552V202.759H159.31V195.517ZM195.517 195.517H210V202.759H195.517V195.517ZM0 202.759H50.6897V210H0V202.759ZM57.931 202.759H72.4138V210H57.931V202.759ZM79.6552 202.759H86.8966V210H79.6552V202.759ZM94.1379 202.759H101.379V210H94.1379V202.759ZM108.621 202.759H115.862V210H108.621V202.759ZM123.103 202.759H130.345V210H123.103V202.759ZM144.828 202.759H152.069V210H144.828V202.759ZM166.552 202.759H181.034V210H166.552V202.759ZM195.517 202.759H202.759V210H195.517V202.759Z" fill="black"/>
</svg>
