<svg width="24" height="24" viewBox="0 0 24 24" fill="none" xmlns="http://www.w3.org/2000/svg">
<path d="M22.3589 14.5736C20.9356 20.2844 15.1515 23.7716 9.43021 22.3474C3.71939 20.9197 0.237783 15.1356 1.66113 9.42482C3.08447 3.71402 8.86506 0.226807 14.5724 1.65102C20.2972 3.05777 23.7788 8.85933 22.3589 14.5736Z" fill="#F0B90B"/>
<path d="M16.0897 11.478L16.0815 9.70252H16.0879L14.5798 8.81477L11.9957 10.3385L9.42709 8.81477L7.91995 9.70252V11.478L10.5041 12.9944V16.0344L12.0048 16.9139L13.5056 16.0344V12.9944L16.0897 11.478Z" fill="white"/>
<path d="M11.9966 4.26666L7.91903 6.67075L9.41974 7.5585L11.9966 6.03481L14.5808 7.5585L16.0815 6.67075L11.9966 4.26666Z" fill="white"/>
<path d="M6.84223 15.1393L6.83396 12.1066L5.33417 11.2198V16.0353L9.41907 18.4311V16.6556L6.84223 15.1393Z" fill="white"/>
<path d="M6.83396 10.8411V9.0739L8.34202 8.18615L6.83396 7.29841L5.33325 8.18615V9.95338L6.83396 10.8411Z" fill="white"/>
<path d="M11.9959 7.29841L10.4952 8.18615L11.9959 9.0739L13.504 8.18615L11.9959 7.29841Z" fill="white"/>
<path d="M9.41973 13.6229L7.91903 12.7352V14.5107L9.41973 15.3902V13.6229Z" fill="white"/>
<path d="M11.9966 18.1793L10.4959 17.2916V19.0588L11.9966 19.9465L13.5046 19.0588V17.2916L11.9966 18.1793Z" fill="white"/>
<path d="M17.1576 7.29841L15.6569 8.18615L17.1576 9.0739V10.8411L18.6657 9.95338V8.18615L17.1576 7.29841Z" fill="white"/>
<path d="M18.6666 11.2188L17.1659 12.1066L17.1576 15.1393L14.5817 16.6547V18.4302L18.6666 16.0344V11.2188Z" fill="white"/>
<path d="M16.0818 14.5106L14.5811 15.3901V13.6229L16.0818 12.7351V14.5106Z" fill="white"/>
</svg>
