<svg width="20" height="20" viewBox="0 0 20 20" fill="none" xmlns="http://www.w3.org/2000/svg">
<path d="M15.8333 13.3333V11.6667C15.8333 9.30967 15.8333 8.13114 15.101 7.39891C14.3688 6.66667 13.1903 6.66667 10.8333 6.66667H9.16663C6.8096 6.66667 5.63109 6.66667 4.89886 7.39891C4.16663 8.13114 4.16663 9.30967 4.16663 11.6667V13.3333C4.16663 15.6903 4.16663 16.8688 4.89886 17.6011C5.63109 18.3333 6.8096 18.3333 9.16663 18.3333H10.8333C13.1903 18.3333 14.3688 18.3333 15.101 17.6011C15.8333 16.8688 15.8333 15.6903 15.8333 13.3333Z" stroke="#000000" stroke-width="1.5" stroke-linejoin="round"/>
<path d="M15.8334 15C17.0119 15 17.6011 15 17.9673 14.6339C18.3334 14.2677 18.3334 13.6785 18.3334 12.5C18.3334 11.3215 18.3334 10.7322 17.9673 10.3661C17.6011 10 17.0119 10 15.8334 10" stroke="#000000" stroke-width="1.5" stroke-linejoin="round"/>
<path d="M4.16663 15C2.98812 15 2.39886 15 2.03274 14.6339C1.66663 14.2677 1.66663 13.6785 1.66663 12.5C1.66663 11.3215 1.66663 10.7322 2.03274 10.3661C2.39886 10 2.98812 10 4.16663 10" stroke="#000000" stroke-width="1.5" stroke-linejoin="round"/>
<path d="M11.25 2.91667C11.25 3.60703 10.6903 4.16667 10 4.16667C9.30967 4.16667 8.75 3.60703 8.75 2.91667C8.75 2.22631 9.30967 1.66667 10 1.66667C10.6903 1.66667 11.25 2.22631 11.25 2.91667Z" stroke="#000000" stroke-width="1.5"/>
<path d="M10 4.16667V6.66667" stroke="#000000" stroke-width="1.5" stroke-linecap="round" stroke-linejoin="round"/>
<path d="M7.5 10.8333V11.6667" stroke="#000000" stroke-width="1.5" stroke-linecap="round" stroke-linejoin="round"/>
<path d="M12.5 10.8333V11.6667" stroke="#000000" stroke-width="1.5" stroke-linecap="round" stroke-linejoin="round"/>
<path d="M8.33337 14.5833C8.33337 14.5833 8.88896 15 10 15C11.1111 15 11.6667 14.5833 11.6667 14.5833" stroke="#000000" stroke-width="1.5" stroke-linecap="round"/>
</svg>
