<svg width="20" height="20" viewBox="0 0 20 20" fill="none" xmlns="http://www.w3.org/2000/svg">
<path d="M15.2083 7.5C16.923 7.56133 18.379 8.84742 18.3322 10.5703C18.3213 10.9712 18.166 11.4666 17.8555 12.4574C17.1081 14.842 15.8521 16.912 13.0385 17.4087C12.5212 17.5 11.9392 17.5 10.7752 17.5H9.22471C8.06071 17.5 7.47871 17.5 6.96149 17.4087C4.14778 16.912 2.89178 14.842 2.14443 12.4574C1.83389 11.4666 1.67862 10.9712 1.66773 10.5703C1.62089 8.84742 3.07688 7.56133 4.79163 7.5" stroke="#000000" stroke-width="1.5" stroke-linecap="round"/>
<path d="M9.99996 11.6667V2.5M9.99996 11.6667C9.41646 11.6667 8.32623 10.0047 7.91663 9.58333M9.99996 11.6667C10.5835 11.6667 11.6737 10.0047 12.0833 9.58333" stroke="#000000" stroke-width="1.5" stroke-linecap="round" stroke-linejoin="round"/>
</svg>
