<svg width="22" height="22" viewBox="0 0 22 22" fill="none" xmlns="http://www.w3.org/2000/svg">
<path d="M21.3589 13.5736C19.9356 19.2844 14.1515 22.7716 8.43021 21.3474C2.71939 19.9197 -0.762217 14.1356 0.661126 8.42482C2.08447 2.71402 7.86506 -0.773193 13.5724 0.651015C19.2972 2.05777 22.7788 7.85933 21.3589 13.5736Z" fill="#ECEFF0"/>
<path d="M11.1337 13.5866C11.0922 13.6007 11.0686 13.5647 11.0404 13.5481C9.65905 12.7328 8.27917 11.917 6.90082 11.1005C6.88747 11.0938 6.87361 11.0881 6.85938 11.0836V11.0653L6.88383 11.0512C6.91854 11.0421 6.95272 11.031 6.98619 11.0181L10.2414 9.53695C10.5315 9.40475 10.8216 9.27462 11.1117 9.14367H11.1324C11.1324 9.18511 11.1324 9.22199 11.1324 9.26136C11.1336 10.7033 11.134 12.145 11.1337 13.5866Z" fill="#343535"/>
<path d="M11.1357 9.14467H11.115C11.115 9.10323 11.1192 9.06179 11.1192 9.01827C11.1192 7.39873 11.1192 5.77904 11.1192 4.15922C11.1144 4.11762 11.1172 4.0755 11.1275 4.03489H11.1362C11.3065 4.28645 11.4548 4.55167 11.6115 4.81151C12.8525 6.87007 14.0929 8.92834 15.3326 10.9863C15.3446 11.0067 15.3541 11.0278 15.3649 11.0502C15.3298 11.0427 15.2953 11.0326 15.2617 11.0199C15.0342 10.9171 14.8058 10.8127 14.5804 10.7079C14.2273 10.5462 13.8741 10.3849 13.5207 10.2238L11.8183 9.45258C11.5916 9.34815 11.3637 9.24662 11.1357 9.14467Z" fill="#2F3030"/>
<path d="M11.1288 4.03275C11.1186 4.07335 11.1158 4.11548 11.1205 4.15708C11.1205 5.77662 11.1205 7.39631 11.1205 9.01613C11.1205 9.05757 11.118 9.09901 11.1164 9.14253C10.8263 9.27348 10.5362 9.40361 10.2461 9.53581L6.99085 11.0169C6.95739 11.0299 6.92321 11.041 6.88849 11.0501C6.98257 10.8545 7.10482 10.6771 7.2163 10.4898C8.5079 8.34284 9.80047 6.19629 11.094 4.05016C11.1026 4.03827 11.1118 4.02692 11.1218 4.01618L11.1288 4.03275Z" fill="#828384"/>
<path d="M11.1357 9.14467C11.3637 9.24662 11.5917 9.34819 11.8192 9.45096L13.5216 10.2222C13.8753 10.383 14.2285 10.5443 14.5813 10.7062C14.8084 10.8103 15.0372 10.9155 15.2626 11.0183C15.2962 11.0309 15.3307 11.041 15.3658 11.0485C15.4072 11.1003 15.3459 11.1024 15.3272 11.1136C14.9737 11.325 14.6186 11.5334 14.2643 11.7431C13.2473 12.3448 12.2306 12.9464 11.2141 13.5479C11.1884 13.5628 11.1606 13.5738 11.1337 13.5866C11.1337 12.1453 11.1337 10.704 11.1337 9.2624C11.1342 9.22303 11.1353 9.18404 11.1357 9.14467Z" fill="#131313"/>
<path d="M11.1191 14.4054L13.7818 12.836C14.2901 12.536 14.7982 12.2356 15.306 11.9351L15.352 11.9098C15.3566 11.9512 15.328 11.9732 15.3106 11.9972C14.1502 13.6331 12.9898 15.2684 11.8294 16.9031C11.6098 17.2131 11.3906 17.5247 11.1689 17.8322C11.1573 17.8484 11.1394 17.9242 11.1038 17.8438C11.132 17.8198 11.1195 17.7875 11.1195 17.7609C11.1198 16.642 11.1197 15.5235 11.1191 14.4054Z" fill="#2F3030"/>
<path d="M11.1189 14.4056C11.1189 15.5237 11.1189 16.6415 11.1189 17.7591C11.1189 17.7877 11.1313 17.82 11.1031 17.842C11.0439 17.8063 11.0182 17.7425 10.9788 17.6899C9.63335 15.7946 8.28856 13.899 6.94446 12.0032C6.92747 11.9792 6.91172 11.9535 6.89432 11.927C6.92913 11.9067 6.94778 11.9344 6.96808 11.9465C8.32876 12.7499 9.68915 13.554 11.0493 14.3588C11.0746 14.3745 11.0961 14.3907 11.1189 14.4056Z" fill="#828384"/>
<path d="M11.1291 4.03273L11.1192 4.0174C11.1374 4.00579 11.1349 4.02278 11.1378 4.03149L11.1291 4.03273Z" fill="#393939"/>
</svg>
