<svg width="1287" height="624" viewBox="0 0 1287 624" fill="none" xmlns="http://www.w3.org/2000/svg">
<path d="M491.105 515.524H802.053M0.655488 -12.6318L0.655459 624M42.1152 -12.6318L42.1152 624M83.5749 -12.6318L83.5749 624M125.035 -12.6318L125.035 624M166.494 -12.6318L166.494 624M207.954 -12.6318L207.954 624M249.414 -12.6318L249.414 624M290.874 -12.6318L290.874 624M332.333 -12.6318L332.333 624M0.184326 598.659H1285.44M373.793 -12.6318L373.793 624M0.184326 559.537H1285.44M415.253 -12.6318L415.253 624M0.184326 520.414H1285.44M456.713 -12.6318L456.713 624M0.184326 481.291H1285.44M498.172 -12.6318L498.172 624M0.184326 442.169H1285.44M539.632 -12.6318L539.632 624M0.184326 403.046H1285.44M581.092 -12.6318L581.092 624M0.184326 363.923H1285.44M622.552 -12.6318L622.552 624M0.184326 324.801H1285.44M664.011 -12.6318L664.011 624M0.184326 285.678H1285.44M705.471 -12.6318L705.471 624M0.184326 246.556H1285.44M746.931 -12.6318L746.931 624M0.184326 207.433H1285.44M788.391 -12.6318L788.391 624M0.184326 168.31H1285.44M829.85 -12.6318L829.85 624M0.184326 129.188H1285.44M871.31 -12.6318L871.31 624M0.184326 90.0651H1285.44M912.77 -12.6318L912.77 624M0.184326 50.9425H1285.44M954.23 -12.6318L954.229 624M0.184326 11.8199H1285.44M995.689 -12.6318V624M0.184326 -27.3027L1285.44 -27.3027M1037.15 -12.6318V624M1078.61 -12.6318V624M1120.07 -12.6318V624M1161.53 -12.6318V624M1202.99 -12.6318V624M1244.45 -12.6318V624M1285.91 -12.6318V624" stroke="url(#paint0_radial_103_3033)" stroke-width="0.888544"/>
<defs>
<radialGradient id="paint0_radial_103_3033" cx="0" cy="0" r="1" gradientUnits="userSpaceOnUse" gradientTransform="translate(643.046 259.697) rotate(90) scale(364.303 719.163)">
<stop stop-color="white" stop-opacity="0.12"/>
<stop offset="0.6" stop-color="white" stop-opacity="0"/>
</radialGradient>
</defs>
</svg>
