<svg width="62" height="27" viewBox="0 0 62 27" fill="none" xmlns="http://www.w3.org/2000/svg">
<path d="M1 19.2377L1.66667 17.4332C2.33333 15.6287 3.66667 12.0196 5 8.56208C6.33333 5.10451 7.66667 1.79842 9 4.39364C10.3333 6.98886 11.6667 15.4854 13 15.092C14.3333 14.6986 15.6667 5.41528 17 4.52033C18.3333 3.62538 19.6667 11.1188 21 12.5564C22.3333 13.9941 23.6667 9.37593 25 7.69416C26.3333 6.01239 27.6667 7.26698 29 9.71034C30.3333 12.1537 31.6667 16.0621 33 19.3487M41 17.3487C42.3333 11.8437 43.6667 3.3761 45 2.60553C46.3333 1.83496 47.6667 8.45878 49 10.1364C50.3333 11.8139 51.6667 8.54529 53 5.75315C54.3333 2.96101 55.6667 0.645392 57 1.5462C58.3333 2.447 59.6667 6.56422 60.3333 8.62284L61 10.6814" stroke="#388E3C" stroke-width="1.5"/>
<path d="M33 19.3487C34.3333 22.6353 35.6667 25.6027 37 25.6507C38.3333 25.6987 39.6667 22.8537 41 17.3487" stroke="#D32F2F" stroke-width="1.5"/>
</svg>
