<svg width="22" height="22" viewBox="0 0 22 22" fill="none" xmlns="http://www.w3.org/2000/svg">
<path d="M1.83325 5.5L8.17019 9.09056C10.5064 10.4143 11.4935 10.4143 13.8297 9.09056L20.1666 5.5" stroke="#111827" stroke-width="1.5" stroke-linejoin="round"/>
<path d="M1.84771 12.3526C1.90763 15.1628 1.9376 16.5678 2.97447 17.6086C4.01133 18.6494 5.45439 18.6856 8.34051 18.7581C10.1193 18.8029 11.8806 18.8029 13.6594 18.7581C16.5455 18.6856 17.9885 18.6494 19.0254 17.6086C20.0623 16.5678 20.0922 15.1628 20.1521 12.3526C20.1714 11.4491 20.1714 10.5509 20.1521 9.64738C20.0922 6.8373 20.0623 5.43226 19.0254 4.39145C17.9885 3.35064 16.5455 3.31438 13.6594 3.24187C11.8806 3.19717 10.1193 3.19717 8.3405 3.24186C5.45439 3.31437 4.01133 3.35062 2.97446 4.39144C1.93759 5.43225 1.90763 6.83729 1.8477 9.64738C1.82843 10.5509 1.82844 11.4491 1.84771 12.3526Z" stroke="#111827" stroke-width="1.5" stroke-linejoin="round"/>
</svg>
