<svg width="20" height="21" viewBox="0 0 20 21" fill="none" xmlns="http://www.w3.org/2000/svg">
<path d="M1.91075 8.06235C2.28004 6.92022 2.88839 5.87182 3.69109 4.98332C3.82683 4.83308 4.03978 4.77953 4.23044 4.8477L6.14873 5.5336C6.6688 5.71946 7.24107 5.44852 7.42692 4.92844C7.4452 4.8773 7.45927 4.82476 7.469 4.77142L7.83446 2.76541C7.8708 2.56596 8.02398 2.40819 8.22227 2.36598C8.80246 2.24249 9.39734 2.17969 10 2.17969C10.6023 2.17969 11.1968 2.24241 11.7767 2.36576C11.9749 2.40793 12.1281 2.5656 12.1645 2.76497L12.531 4.77133C12.6301 5.31466 13.1509 5.67479 13.6942 5.5757C13.7476 5.56596 13.8002 5.55188 13.8512 5.53363L15.7696 4.8477C15.9602 4.77953 16.1732 4.83308 16.3089 4.98332C17.1116 5.87182 17.72 6.92022 18.0893 8.06235C18.1516 8.25503 18.0915 8.46626 17.9371 8.59733L16.3823 9.91742C15.9613 10.2749 15.9098 10.906 16.2673 11.3269C16.3024 11.3683 16.3409 11.4068 16.3823 11.4419L17.9371 12.762C18.0915 12.8931 18.1516 13.1043 18.0893 13.297C17.72 14.4392 17.1116 15.4876 16.3089 16.3761C16.1732 16.5263 15.9602 16.5798 15.7696 16.5117L13.8513 15.8258C13.3312 15.6399 12.759 15.9109 12.5731 16.4309C12.5548 16.4821 12.5408 16.5346 12.531 16.5882L12.1645 18.5944C12.1281 18.7938 11.9749 18.9514 11.7767 18.9936C11.1968 19.117 10.6023 19.1797 10 19.1797C9.39734 19.1797 8.80246 19.1169 8.22227 18.9934C8.02398 18.9512 7.8708 18.7934 7.83446 18.594L7.46902 16.588C7.36993 16.0447 6.84916 15.6846 6.30583 15.7837C6.25241 15.7934 6.19987 15.8075 6.14881 15.8257L4.23044 16.5117C4.03978 16.5798 3.82683 16.5263 3.69109 16.3761C2.88839 15.4876 2.28004 14.4392 1.91075 13.297C1.84845 13.1043 1.90852 12.8931 2.06289 12.762L3.61773 11.442C4.03872 11.0845 4.09021 10.4534 3.73274 10.0324C3.69759 9.99103 3.65913 9.95257 3.61775 9.91744L2.06289 8.59733C1.90852 8.46626 1.84845 8.25503 1.91075 8.06235ZM8.00001 10.6797C8.00001 11.7843 8.89544 12.6797 10 12.6797C11.1046 12.6797 12 11.7843 12 10.6797C12 9.57512 11.1046 8.67969 10 8.67969C8.89544 8.67969 8.00001 9.57512 8.00001 10.6797Z" fill="#000000"/>
</svg>
