<svg width="24" height="24" viewBox="0 0 24 24" fill="none" xmlns="http://www.w3.org/2000/svg">
<path d="M22.3589 14.5736C20.9356 20.2844 15.1515 23.7716 9.43021 22.3474C3.71939 20.9197 0.237783 15.1356 1.66113 9.42482C3.08447 3.71402 8.86506 0.226807 14.5724 1.65102C20.2972 3.05777 23.7788 8.85933 22.3589 14.5736Z" fill="#000008"/>
<path d="M18.5979 15.2926L16.3969 17.5923C16.349 17.6422 16.2911 17.6821 16.2268 17.7093C16.1625 17.7365 16.0931 17.7505 16.0229 17.7505H5.58878C5.53899 17.7505 5.49029 17.7363 5.44866 17.7097C5.40702 17.6831 5.37427 17.6453 5.35443 17.6008C5.33458 17.5563 5.32851 17.5071 5.33695 17.4593C5.3454 17.4115 5.36799 17.3672 5.40195 17.3317L7.60468 15.0321C7.65241 14.9823 7.71011 14.9425 7.77423 14.9153C7.83836 14.8881 7.90754 14.874 7.97749 14.8739H18.4111C18.4608 14.8739 18.5095 14.888 18.5512 14.9146C18.5928 14.9412 18.6255 14.9791 18.6455 15.0236C18.6653 15.0681 18.6713 15.1172 18.6629 15.165C18.6544 15.2128 18.6319 15.2572 18.5979 15.2926ZM16.3969 10.6618C16.349 10.6119 16.2911 10.572 16.2268 10.5448C16.1625 10.5176 16.0931 10.5036 16.0229 10.5036H5.58878C5.53899 10.5036 5.49029 10.5178 5.44866 10.5444C5.40702 10.571 5.37427 10.6088 5.35443 10.6533C5.33458 10.6978 5.32851 10.747 5.33695 10.7948C5.3454 10.8425 5.36799 10.8869 5.40195 10.9224L7.60468 13.222C7.65241 13.2718 7.71011 13.3116 7.77423 13.3388C7.83836 13.366 7.90754 13.3801 7.97749 13.3802H18.4111C18.4608 13.3802 18.5095 13.3661 18.5512 13.3395C18.5928 13.3129 18.6255 13.275 18.6455 13.2305C18.6653 13.186 18.6713 13.1369 18.6629 13.0891C18.6544 13.0413 18.6319 12.9969 18.5979 12.9614L16.3969 10.6618ZM5.58878 9.00996H16.0229C16.0931 9.00999 16.1625 8.99597 16.2268 8.96875C16.2911 8.94153 16.349 8.9017 16.3969 8.85175L18.5979 6.5521C18.6319 6.51664 18.6544 6.47229 18.6629 6.42449C18.6713 6.37669 18.6653 6.32753 18.6455 6.28304C18.6255 6.23856 18.5928 6.2007 18.5512 6.1741C18.5095 6.1475 18.4608 6.13333 18.4111 6.13333H7.97749C7.90754 6.13345 7.83836 6.14755 7.77423 6.17476C7.71011 6.20198 7.65241 6.24173 7.60468 6.29155L5.40252 8.59119C5.36859 8.62661 5.34601 8.67093 5.33754 8.71866C5.32908 8.76641 5.33511 8.81554 5.35488 8.86C5.37466 8.90446 5.40732 8.94232 5.44887 8.96896C5.49042 8.9956 5.53904 9.00985 5.58878 9.00996Z" fill="url(#paint0_linear_16_1112)"/>
<defs>
<linearGradient id="paint0_linear_16_1112" x1="6.45874" y1="18.0274" x2="17.0815" y2="5.73515" gradientUnits="userSpaceOnUse">
<stop offset="0.08" stop-color="#9945FF"/>
<stop offset="0.3" stop-color="#8752F3"/>
<stop offset="0.5" stop-color="#5497D5"/>
<stop offset="0.6" stop-color="#43B4CA"/>
<stop offset="0.72" stop-color="#28E0B9"/>
<stop offset="0.97" stop-color="#19FB9B"/>
</linearGradient>
</defs>
</svg>
