<svg width="20" height="20" viewBox="0 0 20 20" fill="none" xmlns="http://www.w3.org/2000/svg">
<path d="M3.81621 7.1725L1.66663 7.04515C3.20746 3.0874 7.63133 0.833211 11.9445 1.95398C16.5384 3.14769 19.267 7.71795 18.0391 12.1619C17.0235 15.8376 13.6194 18.2756 9.87321 18.3333" stroke="#000000" stroke-width="1.5" stroke-linecap="round" stroke-linejoin="round"/>
<path d="M9.99996 18.3333C5.41663 18.3333 1.66663 14.1667 1.66663 9.16666" stroke="#000000" stroke-width="1.5" stroke-linecap="round" stroke-linejoin="round" stroke-dasharray="0.5 3"/>
<path d="M11.3366 8.10148C11.0437 7.7939 10.3255 7.07114 9.19104 7.58426C8.05658 8.09739 7.87637 9.74834 9.59238 9.92375C10.368 10.003 10.8737 9.83175 11.3366 10.3162C11.7996 10.8006 11.8856 12.1478 10.7021 12.5108C9.51854 12.8739 8.75171 12.2743 8.54546 12.0868M9.92321 6.68295V7.34214M9.92321 12.6226V13.3496" stroke="#000000" stroke-width="1.5" stroke-linecap="round" stroke-linejoin="round"/>
</svg>
