<svg width="20" height="20" viewBox="0 0 20 20" fill="none" xmlns="http://www.w3.org/2000/svg">
<path d="M5.78125 8.33333C5.20547 8.33758 4.85901 8.35525 4.58304 8.42833C3.32702 8.76091 2.46711 9.88658 2.50097 11.1539C2.51077 11.521 2.65052 11.9747 2.93 12.8821C3.60262 15.0658 4.73302 16.9616 7.26537 17.4164C7.73087 17.5 8.25467 17.5 9.30225 17.5H10.6977C11.7453 17.5 12.2692 17.5 12.7347 17.4164C15.267 16.9616 16.3974 15.0658 17.07 12.8821C17.3495 11.9747 17.4892 11.521 17.499 11.1539C17.5329 9.88658 16.673 8.76091 15.417 8.42833C15.141 8.35525 14.7945 8.33758 14.2187 8.33333" stroke="#000000" stroke-width="1.5" stroke-linecap="round"/>
<path d="M9.99996 2.5V11.6667M9.99996 2.5C10.3903 2.5 10.687 2.86508 11.2803 3.59525L12.0833 4.58333M9.99996 2.5C9.60963 2.5 9.31296 2.86508 8.71963 3.59525L7.91663 4.58333" stroke="#000000" stroke-width="1.5" stroke-linecap="round" stroke-linejoin="round"/>
</svg>
